

<svg version="1.1" id="Capa_1" xmlns="http://www.w3.org/2000/svg" xmlns:xlink="http://www.w3.org/1999/xlink" x="0px" y="0px"
	 width="64px" height="64px" viewBox="0 0 64 64" enable-background="new 0 0 64 64" xml:space="preserve">
	<path d="M0.663,32.492c0.359-12.81,6.06-22.39,17.512-28.317c5.151-2.666,10.732-3.626,16.54-3.114
		C48.038,2.236,59.23,11.483,62.331,24.416c2.655,11.073,0.072,20.962-7.928,29.254c-5.111,5.297-11.402,8.199-18.664,9.152
		C23.239,64.463,10.021,57.9,3.993,45.9C1.88,41.692,0.747,37.244,0.663,32.492z M33.242,45.947
		c-0.856-0.124-1.46-0.401-1.796-1.081c-0.315-0.637-0.315-1.315,0.18-1.833c0.477-0.5,0.413-0.918,0.069-1.409
		c-0.102-0.145-0.172-0.313-0.269-0.462c-0.523-0.8-0.611-1.638-0.322-2.554c0.237-0.752,0.518-1.525,0.55-2.297
		c0.04-0.979,0.409-1.749,0.988-2.475c0.272-0.341,0.527-0.694,0.789-1.043c2.591-3.453,6.186-4.488,10.229-3.862
		c3.087,0.477,5.45,2.264,6.869,5.137c0.305,0.619,0.746,1.239,0.818,1.892c0.226,2.032,0.707,4.079,0.033,6.126
		c-0.062,0.187,0.005,0.471,0.113,0.65c0.768,1.273,0.41,2.423-0.952,3.04c-0.262,0.119-0.515,0.294-0.72,0.497
		c-0.825,0.819-1.611,1.679-2.452,2.482c-0.323,0.308-0.395,0.548-0.112,0.893c0.695,0.848,1.039,1.856,1.315,2.896
		c0.108,0.408,0.232,0.812,0.349,1.217c0.085-0.215,0.12-0.419,0.079-0.606c-0.122-0.549,0.081-0.931,0.496-1.286
		c0.481-0.411,0.911-0.883,1.36-1.331c4.477-4.481,7.129-9.859,7.714-16.17c0.255-2.758,0.23-5.541-0.367-8.287
		C55.076,11.709,41.351,2.542,26.928,5.175C13.933,7.547,3.283,19.683,5.252,35.26c0.709,5.612,3.146,10.505,6.994,14.674
		c0.389,0.421,0.822,0.817,0.735,1.498c0.118-0.176,0.193-0.351,0.247-0.532c0.714-2.408,1.43-4.816,2.133-7.228
		c0.104-0.357,0.292-0.546,0.658-0.661c1.453-0.459,2.891-0.962,4.34-1.433c0.291-0.095,0.431-0.22,0.501-0.551
		c0.12-0.572-0.268-0.687-0.623-0.828c-1.225-0.486-2.185-1.242-2.766-2.463c-0.746-1.567-1.278-3.194-1.544-4.909
		c-0.082-0.531-0.16-1.063-0.24-1.595c-0.059,0.014-0.119,0.027-0.178,0.041c0.251,2.783,0.797,5.481,2.486,7.896
		c-0.507,0.211-0.937,0.39-1.432,0.596c-0.072-0.594-0.132-1.101-0.194-1.608c-0.059-0.485-0.278-0.652-0.803-0.564
		c-0.644,0.108-1.31,0.085-2.03,0.122c0.147-0.652,0.265-1.172,0.383-1.691c0.368-1.622,0.478-1.288-1.012-1.811
		c-0.643-0.225-1.286-0.45-2.081-0.729c0.961-0.991,1.809-1.864,2.662-2.745c-1.003-1.628-2.603-2.189-4.478-2.524
		c0.397-0.301,0.629-0.482,0.866-0.656c0.862-0.633,1.718-1.276,2.593-1.892c0.459-0.323,0.486-0.7,0.206-1.121
		c-0.339-0.511-0.681-1.025-1.077-1.491c-0.584-0.685-1.217-1.328-1.929-2.097c1.97-0.17,3.796-0.327,5.68-0.49
		c0.12-1.661-0.677-3.04-1.268-4.565c0.288,0.039,0.489,0.032,0.666,0.095c1.08,0.382,2.167,0.749,3.225,1.185
		c0.456,0.188,0.663,0.072,0.799-0.342c0.129-0.395,0.285-0.785,0.37-1.189c0.235-1.112,0.439-2.231,0.695-3.547
		c1.229,1.456,2.365,2.804,3.538,4.193c1.361-1.587,2.912-2.809,4.815-3.684c0,0.42-0.021,0.758,0.004,1.091
		c0.097,1.302,0.172,2.607,0.33,3.902c0.092,0.753,0.216,0.793,0.948,0.556c0.752-0.243,1.492-0.526,2.238-0.788
		c0.468-0.164,0.938-0.321,1.544-0.527c-0.932,1.656-1.781,3.166-2.686,4.773c1.575,0.256,3.02,0.491,4.466,0.726
		c0.02,0.059,0.04,0.118,0.06,0.177c-1.111,1.109-2.223,2.218-3.375,3.368c1.227,0.527,2.434,1.047,3.696,1.589
		c-1.54,1.176-3.272,1.787-4.997,2.412c-0.016,0.075-0.032,0.149-0.048,0.224c0.967,0.65,1.933,1.3,3.03,2.037
		c-0.908,0.395-1.702,0.782-2.527,1.086c-0.473,0.174-0.56,0.398-0.386,0.839c0.193,0.49,0.339,0.999,0.529,1.571
		c-0.495,0.069-0.903,0.114-1.308,0.184c-0.734,0.126-0.827,0.348-0.407,0.981c0.212,0.319,0.448,0.622,0.716,0.991
		c-0.383,0.141-0.671,0.269-0.972,0.352c-0.667,0.184-1.186,0.522-1.653,1.068c-0.392,0.458-0.984,0.776-1.538,1.059
		c-0.659,0.338-0.856,0.891-0.385,1.477c1.669,2.079,2.744,4.482,3.757,6.915c0.37,0.888,0.263,1.163-0.461,1.82
		c-0.479,0.435-0.95,0.879-1.456,1.347c0.98,1.029,1.892,1.987,2.805,2.945c-0.066-0.284-0.164-0.596-0.365-0.814
		c-0.537-0.583-1.109-1.134-1.685-1.679c-0.283-0.268-0.276-0.486,0.007-0.736c0.386-0.34,0.749-0.709,1.147-1.034
		c0.537-0.439,0.645-0.958,0.397-1.588c-0.869-2.215-1.767-4.413-3.229-6.326c-0.162-0.212-0.295-0.448-0.497-0.759
		c1.341,0.38,2.569,0.744,3.807,1.07c0.44,0.116,0.647,0.362,0.761,0.789c1.133,4.263,2.281,8.522,3.425,12.782
		c0.042,0.158,0.098,0.313,0.148,0.469c0.056-0.002,0.112-0.004,0.168-0.006c0.101-0.756,0.224-1.51,0.298-2.269
		c0.171-1.772,0.809-3.377,1.701-4.894c0.144-0.246,0.262-0.457,0.687-0.338c1.292,0.361,2.601,0.675,3.919,0.92
		c0.603,0.112,1.244,0.019,1.867,0.019c-4.206-0.224-7.786-1.486-9.737-5.636C33.021,45.11,33.114,45.462,33.242,45.947z
		 M19.915,43.156c-0.05-0.021-0.1-0.042-0.15-0.062c-0.121,0.242-0.258,0.478-0.359,0.728c-0.551,1.355-1.149,2.695-1.626,4.076
		c-0.703,2.034-0.889,1.576,0.708,3.116c0.143,0.138,0.288,0.273,0.431,0.409c0.339,0.322,0.711,0.635,0.221,1.174
		c0.747-0.529,0.763-0.649,0.198-1.172c-0.45-0.417-0.894-0.845-1.377-1.222c-0.391-0.305-0.472-0.641-0.31-1.085
		c0.515-1.411,1.014-2.828,1.538-4.236C19.406,44.297,19.672,43.73,19.915,43.156z"/>
</svg>
