<?xml version="1.0" encoding="utf-8"?>
<!-- Generator: Adobe Illustrator 17.0.0, SVG Export Plug-In . SVG Version: 6.00 Build 0)  -->
<!DOCTYPE svg PUBLIC "-//W3C//DTD SVG 1.1//EN" "http://www.w3.org/Graphics/SVG/1.1/DTD/svg11.dtd">
<svg version="1.1" id="Capa_1" xmlns="http://www.w3.org/2000/svg" xmlns:xlink="http://www.w3.org/1999/xlink" x="0px" y="0px"
	 width="536.961px" height="510.335px" viewBox="0 0 536.961 510.335" enable-background="new 0 0 536.961 510.335"
	 xml:space="preserve">
<path fill="#F9F961" d="M513.198,277.171c58.991,52.768-1.08,198.935-79.39,229.621c-55.399,21.709-148.211-63.432-204.162-63.432
	c-135.041,0-308.735,4.211-190.198-144.271C123.762,193.475,9.33,0,268.685,32.476C402.68,49.255,396.04,172.371,513.198,277.171z"
	/>
<g>
	<path d="M184.759,491.703c0.698-8.451,1.261-16.916,2.13-25.349c1.021-9.913,2.393-19.776,4.977-29.442
		c0.892-3.335,2.513-6.024,5.02-8.379c7.418-6.967,15.527-13.059,23.788-18.948c7.333-5.227,14.774-10.307,22.246-15.335
		c1.496-1.007,2.111-2.067,2.061-3.839c-0.107-3.755-0.032-7.515-0.032-11.169c-4.198-2.365-8.532-4.465-12.486-7.129
		c-3.887-2.619-7.387-5.811-11.228-8.888c-2.333,1.307-4.841,2.712-7.349,4.117c-0.381,0.214-0.759,0.435-1.144,0.641
		c-2.508,1.338-2.917,1.149-3.438-1.579c-1.228-6.439-2.453-12.879-3.69-19.317c-0.13-0.679-0.332-1.344-0.564-2.267
		c-0.961,0.267-1.854,0.49-2.731,0.762c-7.346,2.277-14.689,4.569-22.037,6.84c-0.918,0.284-1.853,0.533-2.798,0.699
		c-2.341,0.411-3.374-0.205-3.605-2.565c-0.22-2.25-0.201-4.551-0.018-6.807c0.495-6.099,1.183-12.181,1.691-18.279
		c0.21-2.522,0.193-5.066,0.208-7.601c0.005-0.848-0.209-1.698-0.342-2.692c-0.83-0.066-1.498-0.17-2.166-0.164
		c-14.313,0.124-28.45-1.397-42.42-4.498c-0.938-0.208-1.9-0.387-2.783-0.746c-0.669-0.273-1.604-0.706-1.76-1.255
		c-0.307-1.081,0.877-1.308,1.607-1.71c0.535-0.294,1.117-0.499,1.668-0.765c10.363-5.002,20.161-10.894,28.741-18.626
		c2.132-1.921,3.994-4.152,5.893-6.317c0.74-0.844,1.311-1.86,1.841-2.86c1.617-3.051,1.602-4.107-1.076-6.361
		c-3.336-2.808-6.747-5.629-10.483-7.841c-12.187-7.215-24.549-14.134-36.816-21.213c-4.239-2.446-8.412-5.006-12.584-7.566
		c-1.02-0.626-2.403-1.3-2.17-2.694c0.263-1.578,1.932-1.229,3.051-1.44c10.731-2.023,21.013-5.299,30.513-10.79
		c4.334-2.505,8.364-5.425,11.921-8.961c0.855-0.85,1.592-1.819,2.401-2.754c-0.392-0.579-0.651-1.032-0.975-1.432
		c-10.68-13.191-21.61-26.167-33.409-38.383c-2.247-2.327-4.58-4.575-6.947-6.781c-2.952-2.75-6.227-5.052-9.723-7.095
		c-4.602-2.689-9.045-5.65-13.595-8.432c-1.56-0.954-3.222-1.746-4.86-2.567c-0.705-0.353-1.632-0.553-1.374-1.587
		c0.247-0.989,1.184-0.856,1.962-0.858c0.7-0.002,1.399,0.043,2.099,0.04c9.447-0.039,18.904,0.19,28.337-0.191
		c13.799-0.556,27.578-1.584,41.288-3.356c3.293-0.426,6.592-0.807,9.886-1.225c0.505-0.064,0.999-0.212,1.743-0.375
		c-0.32-0.818-0.539-1.535-0.869-2.196c-6.838-13.713-12.862-27.771-17.778-42.289c-4.13-12.198-7.472-24.605-8.914-37.433
		c-0.506-4.506-0.461-9.073-0.661-13.613c-0.015-0.348-0.024-0.709,0.045-1.047c0.227-1.101,0.941-1.472,1.915-0.974
		c0.383,0.196,0.714,0.503,1.048,0.784c9.209,7.749,19.45,13.964,29.773,20.058c11.223,6.625,22.505,13.159,32.876,21.107
		c2.915,2.234,5.753,4.567,8.62,6.863c1.015,0.813,2.013,1.649,3.24,2.656c0.259-0.758,0.496-1.271,0.61-1.809
		c2.439-11.568,6.565-22.426,13.037-32.4c5.044-7.771,10.006-15.613,14.591-23.66c5.136-9.014,8.5-18.777,10.782-28.901
		c0.192-0.852,0.334-1.73,0.656-2.534c0.169-0.422,0.77-1.047,1.014-0.981c0.49,0.132,0.9,0.647,1.277,1.064
		c0.153,0.17,0.127,0.498,0.189,0.752c3.898,15.964,7.806,31.925,11.691,47.891c1.694,6.964,3.234,13.967,5.048,20.899
		c1.171,4.475,2.554,8.91,4.13,13.259c2.021,5.578,4.33,11.051,6.607,16.801c0.963-0.467,1.66-0.757,2.312-1.126
		c22.606-12.786,45.208-25.58,67.811-38.371c0.989-0.56,1.963-1.153,2.987-1.642c0.579-0.276,1.244-0.37,2.25-0.652
		c0,1.213,0.106,2.061-0.016,2.875c-2.331,15.556-4.811,31.09-7.004,46.666c-1.925,13.671-3.536,27.387-5.274,41.084
		c-0.065,0.509-0.008,1.033-0.008,1.724c1.442,0.208,2.791,0.471,4.153,0.589c8.735,0.755,17.297,2.546,25.798,4.553
		c9.609,2.269,19.14,4.867,28.688,7.384c0.935,0.247,2.259,0.748,2.519,1.456c0.494,1.345-1.083,1.786-1.941,2.41
		c-11.745,8.539-23.437,17.147-34.487,26.584c-3.452,2.948-6.842,5.973-9.833,9.658c0.476,0.376,0.82,0.752,1.246,0.969
		c13.892,7.066,27.053,15.388,40.333,23.503c2.132,1.303,2.155,1.857,0.169,3.418c-10.862,8.542-21.747,17.054-32.622,25.579
		c-0.744,0.583-1.473,1.186-2.471,1.991c2.36,4.337,4.404,8.701,6.994,12.711c4.171,6.457,8.66,12.712,13.101,18.991
		c1.922,2.717,1.806,3.174-1.45,3.744c-7.228,1.265-14.486,2.386-21.661,3.901c-3.736,0.789-7.33,2.268-10.969,3.493
		c-0.733,0.246-1.406,0.708-2.059,1.144c-1.625,1.085-1.845,1.387-1.03,3.224c2.197,4.948,4.48,9.861,6.861,14.723
		c1.228,2.508,2.769,4.861,4.107,7.318c0.933,1.714,0.583,2.382-1.38,2.534c-5.578,0.431-11.162,0.794-16.743,1.187
		c-1.918,0.135-3.836,0.38-5.754,0.382c-1.569,0.002-2.294,0.697-2.829,2.109c-2.299,6.062-5.151,11.859-8.579,17.373
		c-6.783,10.909-15.391,19.879-27.052,25.636c-0.309,0.153-0.596,0.351-1.202,0.711c0.274,2.996,0.552,6.099,0.845,9.201
		c0.074,0.783,0.223,1.56,0.291,2.343c0.482,5.521-0.212,4.377,4.452,6.968c13.075,7.264,26.078,14.645,38.354,23.223
		c2.219,1.551,4.299,3.3,6.458,4.939c2.031,1.542,3.316,3.52,3.819,6.046c1.159,5.823,2.592,11.599,3.524,17.457
		c2.145,13.477,3.309,27.07,4.304,40.675c0.057,0.777-0.011,1.564-0.022,2.346c-0.7,0-1.4,0-2.1,0
		c-0.014-0.872,0.031-1.751-0.052-2.617c-0.879-9.13-1.578-18.284-2.73-27.379c-1.086-8.571-2.317-17.153-4.108-25.597
		c-1.731-8.163-0.537-6.684-7.882-12.181c-11.571-8.66-24.161-15.716-36.748-22.757c-0.251-0.141-0.561-0.177-1.196-0.368
		c0.349,0.934,0.542,1.485,0.759,2.027c2.269,5.674,4.723,11.282,6.779,17.033c6.737,18.841,12.297,38.055,17.828,57.275
		c1.399,4.86,2.833,9.71,4.251,14.565c-0.875,0-1.75,0-2.625,0c-0.106-0.595-0.161-1.205-0.327-1.783
		c-3.237-11.338-6.386-22.702-9.76-33.999c-4.274-14.311-8.596-28.618-14.057-42.532c-1.908-4.861-4.364-9.508-6.6-14.238
		c-0.313-0.662-0.634-1.497-1.804-1.093c0.238,3.918,0.459,7.839,0.716,11.758c0.779,11.861,1.579,23.72,2.357,35.58
		c0.864,13.169,1.726,26.339,2.553,39.51c0.142,2.26,0.104,4.531,0.149,6.797c-0.7,0-1.4,0-2.1,0
		c-0.083-2.182-0.127-4.366-0.257-6.546c-0.223-3.751-0.512-7.499-0.752-11.25c-0.624-9.77-1.228-19.542-1.855-29.312
		c-0.779-12.125-1.57-24.248-2.364-36.372c-0.203-3.103-0.434-6.205-0.676-9.646c-1.07,0.526-1.815,0.918-2.581,1.264
		c-3.738,1.686-7.41,3.551-11.241,4.994c-6.764,2.549-13.693,2.778-20.546,0.346c-3.61-1.281-7.085-2.943-10.62-4.435
		c-0.604-0.255-1.203-0.519-1.906-0.822c-0.318,1.036-0.569,1.867-0.828,2.695c-2.885,9.203-3.225,18.741-3.6,28.255
		c-0.376,9.521-0.538,19.051-0.779,28.577c-0.272,10.75-0.528,21.5-0.79,32.25c-0.7,0-1.4,0-2.1,0
		c-0.012-0.611-0.048-1.222-0.033-1.831c0.496-19.833,0.931-39.668,1.532-59.498c0.23-7.591,0.555-15.204,2.226-22.66
		c0.704-3.141,1.59-6.241,2.394-9.358c-0.793-0.876-1.593-1.676-2.293-2.555c-0.67-0.843-1.427-1.065-2.239-0.374
		c-0.839,0.714-1.536,1.592-2.339,2.352c-0.736,0.696-1.53,1.33-2.299,1.992c-1.406-1.076-2.186,0.284-3.118,0.855
		c-1.413,0.867-2.76,1.845-4.124,2.791c-10.989,7.62-21.823,15.433-32.052,24.082c-4.415,3.733-7.015,8.13-8.194,13.796
		c-2.623,12.604-4.038,25.346-5.152,38.14c-0.356,4.088-0.671,8.18-1.005,12.27C186.159,491.703,185.459,491.703,184.759,491.703z
		 M344.127,273.899c-0.034-13.259-0.936-25.824-3.152-38.237c-3.352-18.776-7.988-37.245-14.451-55.215
		c-5.049-14.04-11.262-27.505-20.211-39.554c-6.587-8.87-14.385-16.436-24.059-21.927c-8.244-4.679-17.099-7.487-26.508-8.561
		c-10.261-1.171-20.334-0.919-30.249,2.658c-19.757,7.127-33.524,20.312-41.403,39.744c-4.514,11.133-6.694,22.778-7.684,34.676
		c-1.238,14.875-0.474,29.715,1.192,44.512c1.684,14.953,4.416,29.717,8.208,44.292c3.94,15.144,8.035,30.234,13.698,44.845
		c4.63,11.944,10.191,23.405,18.054,33.614c6.887,8.942,15.192,16.153,25.611,20.744c6.46,2.847,13.23,4.506,20.246,5.109
		c9.471,0.814,18.912,0.474,28.107-2.05c11.452-3.144,20.448-10.08,27.83-19.189c10.002-12.342,15.812-26.686,19.652-41.925
		C342.659,302.939,344.049,288.171,344.127,273.899z M168.635,137.872c-13.841,2.858-27.346,3.775-40.826,4.795
		c-13.558,1.027-27.142,1.556-41.306,1.052c0.733,0.639,1.001,0.944,1.331,1.151c3.999,2.512,7.902,5.201,12.038,7.465
		c5.596,3.063,10.416,7.047,14.882,11.518c13.435,13.449,25.627,27.99,37.556,42.762c1.53,1.895,1.614,2.175-0.175,3.962
		c-2.591,2.588-5.194,5.226-8.115,7.411c-10.424,7.794-22.35,12.162-34.987,14.791c-0.704,0.147-1.396,0.352-2.724,0.69
		c2.355,1.451,4.093,2.6,5.902,3.624c12.404,7.023,24.893,13.899,37.203,21.082c5.196,3.032,10.083,6.612,14.986,10.118
		c1.601,1.145,2.887,2.776,4.17,4.308c1.093,1.305,1.263,2.878,0.46,4.431c-0.88,1.703-1.685,3.472-2.782,5.03
		c-3.31,4.701-7.637,8.406-12.198,11.824c-6.451,4.834-13.252,9.119-20.499,12.679c-0.774,0.38-1.805,0.56-2.15,1.75
		c14.036,3.046,28.083,4.55,42.306,4.388c3.517-0.04,3.885,0.257,4.239,3.714c0.116,1.128,0.185,2.274,0.13,3.405
		c-0.148,3.056-0.327,6.112-0.579,9.162c-0.489,5.925-1.068,11.842-1.537,17.768c-0.107,1.346-0.308,2.778,0.63,4.22
		c10.077-2.583,19.852-5.952,29.483-9.052c-3.408-8.018-6.737-15.798-10.004-23.604c-0.415-0.991-1.101-1.2-2.003-1.364
		c-6.735-1.22-11.856-4.961-15.823-10.374c-2.002-2.733-3.242-5.809-3.153-9.276c0.17-6.633,2.67-12.041,8.384-15.729
		c0.36-0.232,0.698-0.496,1.103-0.785c-0.162-0.827-0.264-1.601-0.466-2.348c-3.891-14.368-6.641-28.95-8.401-43.733
		c-1.886-15.846-2.749-31.708-1.469-47.646c0.822-10.237,2.573-20.291,5.896-30.028c7.468-21.886,21.493-37.578,43.5-45.549
		c4.089-1.481,8.329-2.742,12.607-3.451c5.612-0.93,11.326-0.649,17.012-0.156c19.071,1.653,35.052,9.569,48.069,23.547
		c8.677,9.318,15.152,20.076,20.454,31.574c10.248,22.226,16.172,45.762,20.95,69.637c0.561,2.802,0.961,5.636,1.42,8.365
		c12.751,2.018,18.625,11.345,18.991,17.838c0.337,5.983-0.831,11.676-4.109,16.794c-2.991,4.669-7.212,7.501-12.919,8.013
		c-0.857,15.981-3.411,31.44-8.604,46.816c7.663-0.533,14.928-1.038,22.585-1.571c-0.605-1.167-1.014-2.006-1.467-2.819
		c-3.49-6.267-6.947-12.55-9.363-19.336c-0.917-2.576-0.837-3.288,1.538-4.813c2.11-1.355,4.413-2.526,6.781-3.344
		c8.799-3.041,17.961-4.482,27.136-5.825c0.627-0.092,1.238-0.293,2.062-0.493c-0.481-0.697-0.776-1.121-1.067-1.547
		c-3.947-5.773-8.058-11.443-11.785-17.355c-2.604-4.13-4.72-8.571-6.976-12.914c-0.94-1.81-0.822-1.977,0.759-3.294
		c0.268-0.224,0.559-0.421,0.834-0.637c10.543-8.242,21.088-16.483,31.627-24.73c0.645-0.504,1.25-1.059,1.9-1.614
		c-0.376-0.345-0.489-0.49-0.635-0.576c-12.37-7.253-24.736-14.51-37.123-21.735c-1.203-0.702-2.546-1.161-3.792-1.794
		c-1.788-0.908-1.878-1.297-0.675-2.992c0.606-0.854,1.235-1.716,1.984-2.439c2.955-2.853,5.862-5.769,8.969-8.45
		c10.074-8.694,20.75-16.619,31.541-24.392c0.76-0.548,1.502-1.121,2.52-1.883c-1.12-0.362-1.849-0.632-2.597-0.835
		c-4.218-1.144-8.421-2.353-12.666-3.391c-14.179-3.47-28.321-7.155-42.997-7.958c-1.655-0.091-1.925-0.414-1.785-2.189
		c0.262-3.31,0.52-6.628,0.981-9.914c3.291-23.462,6.631-46.916,9.96-70.372c0.402-2.831,0.836-5.658,1.328-8.981
		c-1.35,0.716-2.268,1.176-3.161,1.681c-22.61,12.784-45.215,25.576-67.826,38.357c-2.647,1.496-2.889,1.47-4.048-1.277
		c-2.242-5.316-4.505-10.63-6.499-16.04c-1.659-4.503-3.116-9.098-4.353-13.735c-1.622-6.078-2.888-12.251-4.398-18.36
		c-3.714-15.02-7.479-30.028-11.237-45.038c-0.062-0.246-0.295-0.448-0.674-1.001c-1.506,7.023-3.848,13.315-6.574,19.473
		c-3.946,8.914-9.193,17.079-14.46,25.237c-3.41,5.281-7.105,10.381-9.641,16.205c-3.623,8.324-6.38,16.889-7.882,25.873
		c-1.027,0.589-1.597-0.229-2.247-0.758c-3.868-3.145-7.674-6.369-11.605-9.431c-10.239-7.976-21.4-14.542-32.557-21.11
		c-10.177-5.992-20.328-12.027-29.514-19.52c-0.233-0.19-0.567-0.256-1.064-0.471c-0.34,4.072,0.082,7.881,0.522,11.663
		c1.431,12.296,4.562,24.204,8.452,35.928c5.077,15.302,11.503,30.036,18.704,44.445
		C167.516,135.385,167.956,136.406,168.635,137.872z M296.68,379.323c-5.484,2.018-10.861,3.147-16.348,3.428
		c-5.495,0.282-11.041,0.574-16.505,0.134c-5.426-0.437-10.779-1.78-16.405-2.767c-0.07,4.088-0.18,8.182-0.168,12.276
		c0.002,0.593,0.442,1.354,0.919,1.749c5.466,4.531,11.612,7.758,18.55,9.385c3.255,0.763,6.541,1.066,9.892,0.66
		c7.566-0.916,14.21-4.103,20.543-8.128c0.988-0.628,1.147-1.403,1.033-2.439c-0.336-3.041-0.622-6.088-0.938-9.132
		C297.084,382.862,296.893,381.238,296.68,379.323z M346.32,281.171c3.462-0.062,5.979-1.394,8.077-3.479
		c5.428-5.396,7.328-12.19,6.297-19.484c-1.094-7.741-6.53-12.03-13.702-14.299c-0.701-0.222-1.463-0.246-2.494-0.409
		C345.978,256.133,346.747,268.484,346.32,281.171z M194.644,314.864c-1.761-5.556-3.45-10.658-4.991-15.805
		c-1.556-5.199-2.966-10.443-4.463-15.746c-7.31,4.109-10.044,13.891-5.976,20.657c2.892,4.811,7.061,8.145,12.321,10.09
		C192.4,314.38,193.326,314.529,194.644,314.864z M219.705,361.411c-4.134-5.812-8.1-11.387-12.272-17.253
		c1.372,7.394,2.575,14.501,4.166,21.8C214.544,364.306,217.112,362.866,219.705,361.411z"/>
	<path fill="#8CD3D8" d="M245.655,491.703c0.263-10.75,0.518-21.5,0.79-32.25c0.241-9.526,0.403-19.056,0.779-28.577
		c0.376-9.514,0.716-19.052,3.6-28.255c0.26-0.828,0.51-1.66,0.828-2.695c0.702,0.303,1.302,0.567,1.906,0.822
		c3.535,1.492,7.01,3.154,10.62,4.435c6.853,2.432,13.782,2.203,20.546-0.346c3.83-1.444,7.502-3.309,11.241-4.994
		c0.766-0.346,1.511-0.738,2.581-1.264c0.242,3.442,0.473,6.543,0.676,9.646c0.793,12.124,1.585,24.247,2.364,36.372
		c0.628,9.77,1.231,19.542,1.855,29.312c0.24,3.751,0.529,7.498,0.752,11.25c0.13,2.179,0.174,4.364,0.257,6.546
		C284.851,491.703,265.253,491.703,245.655,491.703z"/>
	<path fill="#FFFFFF" d="M186.859,491.703c0.334-4.09,0.649-8.182,1.005-12.27c1.114-12.794,2.529-25.536,5.152-38.14
		c1.179-5.665,3.779-10.062,8.194-13.796c10.229-8.648,21.062-16.462,32.052-24.082c1.364-0.946,2.711-1.924,4.124-2.791
		c0.932-0.572,1.712-1.932,3.118-0.855c0.769-0.661,1.563-1.296,2.299-1.992c0.803-0.76,1.5-1.638,2.339-2.352
		c0.812-0.691,1.569-0.469,2.239,0.374c0.699,0.88,1.499,1.679,2.293,2.555c-0.803,3.118-1.69,6.217-2.394,9.358
		c-1.671,7.456-1.995,15.069-2.226,22.66c-0.602,19.83-1.036,39.665-1.532,59.498c-0.015,0.61,0.021,1.221,0.033,1.831
		c-9.974,0-19.948,0-29.923,0c0.092-1.476,0.031-2.981,0.301-4.425c1.833-9.816,4.725-19.358,7.91-28.793
		c6.121-18.132,12.466-36.188,18.711-54.278c0.357-1.035,0.645-2.095,1.033-3.368c-1.562,0.18-2.187,1.005-2.639,1.936
		c-0.533,1.098-0.993,2.238-1.396,3.391c-4.899,14.026-9.963,27.997-14.609,42.106c-3.606,10.948-6.764,22.048-9.952,33.129
		c-0.957,3.326-1.917,6.737-1.458,10.302C203.308,491.703,195.084,491.703,186.859,491.703z"/>
	<path fill="#FFFFFF" d="M335.947,491.703c-1.418-4.855-2.853-9.705-4.251-14.565c-5.532-19.22-11.091-38.434-17.828-57.275
		c-2.056-5.75-4.511-11.358-6.779-17.033c-0.217-0.542-0.41-1.093-0.759-2.027c0.635,0.191,0.945,0.227,1.196,0.368
		c12.587,7.041,25.177,14.097,36.748,22.757c7.346,5.498,6.151,4.019,7.882,12.181c1.791,8.445,3.022,17.026,4.108,25.597
		c1.152,9.096,1.851,18.249,2.73,27.379c0.083,0.866,0.038,1.744,0.052,2.617C351.346,491.703,343.647,491.703,335.947,491.703z"/>
	<path fill="#FFFFFF" d="M306.55,491.703c-0.045-2.266-0.007-4.537-0.149-6.797c-0.827-13.172-1.689-26.341-2.553-39.51
		c-0.778-11.861-1.578-23.72-2.357-35.58c-0.257-3.919-0.479-7.84-0.716-11.758c1.17-0.404,1.491,0.431,1.804,1.093
		c2.236,4.731,4.692,9.377,6.6,14.238c5.461,13.914,9.783,28.221,14.057,42.532c3.374,11.297,6.523,22.661,9.76,33.999
		c0.165,0.578,0.22,1.188,0.327,1.783C324.398,491.703,315.474,491.703,306.55,491.703z"/>
	<path d="M211.532,491.703c-0.459-3.566,0.502-6.977,1.458-10.302c3.188-11.081,6.346-22.18,9.952-33.129
		c4.647-14.109,9.711-28.08,14.609-42.106c0.403-1.153,0.862-2.294,1.396-3.391c0.452-0.931,1.077-1.756,2.639-1.936
		c-0.388,1.273-0.676,2.332-1.033,3.368c-6.244,18.09-12.59,36.146-18.711,54.278c-3.185,9.435-6.078,18.977-7.91,28.793
		c-0.269,1.443-0.209,2.948-0.301,4.425C212.932,491.703,212.232,491.703,211.532,491.703z"/>
	<path fill="#E2D3C3" d="M344.127,273.899c-0.078,14.272-1.467,29.04-5.12,43.536c-3.84,15.239-9.649,29.583-19.652,41.925
		c-7.383,9.11-16.378,16.045-27.83,19.189c-9.195,2.524-18.636,2.865-28.107,2.05c-7.015-0.603-13.786-2.263-20.246-5.109
		c-10.419-4.591-18.724-11.802-25.611-20.744c-7.863-10.209-13.424-21.67-18.054-33.614c-5.664-14.611-9.759-29.701-13.698-44.845
		c-3.792-14.576-6.524-29.339-8.208-44.292c-1.666-14.797-2.43-29.637-1.192-44.512c0.99-11.898,3.17-23.543,7.684-34.676
		c7.88-19.432,21.646-32.617,41.403-39.744c9.915-3.577,19.988-3.829,30.249-2.658c9.409,1.074,18.264,3.881,26.508,8.561
		c9.674,5.491,17.472,13.056,24.059,21.927c8.948,12.05,15.161,25.514,20.211,39.554c6.463,17.97,11.099,36.439,14.451,55.215
		C343.191,248.075,344.093,260.639,344.127,273.899z M248.885,211.457c-22.488,2.01-43.374,8.358-62.847,19.56
		c-1.204-4.388-1.111-8.485-0.542-12.568c0.686-4.925,2.49-9.454,5.358-13.525c0.811-1.151,1.212-2.102-0.276-2.97
		c-8.134,8.641-11.393,26.38-2.236,40.547c9.418,14.572,27.543,20.254,43.526,13.577c15.635-6.532,24.431-23.55,20.747-40.14
		c-2.843-12.804-15.892-26.306-25.198-25.934c-0.071,0.536-0.146,1.094-0.223,1.675
		C237.373,194.999,244.601,201.315,248.885,211.457z M324.067,194.458c-22.617,0.937-43.624,6.754-63.537,16.98
		c-0.948-3.785-0.846-7.253-0.377-10.739c0.897-6.678,3.758-12.472,8.191-17.738c-0.697-0.455-1.225-0.798-1.719-1.12
		c-9.258,9.621-13.038,27.519-3.562,42.451c8.727,13.752,25.994,19.705,41.596,14.285c15.339-5.329,25.184-21.06,23.348-37.308
		c-1.508-13.345-13.096-27.62-23.462-28.898c-0.738,1.622,0.332,2.12,1.552,2.656c7.419,3.257,12.89,8.573,16.49,15.814
		C323.117,191.909,323.497,193.054,324.067,194.458z M190.124,193.163c1.294-0.128,2.09-0.139,2.857-0.292
		c6.338-1.268,12.729-2.33,18.996-3.89c28.197-7.016,55.607-16.463,82.666-26.987c4.556-1.772,6.314-5.308,6.803-9.692
		c0.389-3.49-1.884-5.408-5.387-4.844c-1.029,0.166-2.039,0.49-3.039,0.799c-34.383,10.633-68.531,22.06-103.529,30.617
		c-1.323,0.323-2.648,0.981-3.754,1.783c-4.321,3.136-3.73,9.284,1.102,11.572C187.991,192.775,189.322,192.943,190.124,193.163z
		 M303.047,303.972c-8.699,0.066-17.326,0.577-25.905,1.887c-15.757,2.407-30.509,7.544-43.95,16.216
		c-1.835,1.184-3.614,2.463-5.334,3.807c-0.342,0.268-0.293,1.036-0.424,1.574c0.55,0.061,1.208,0.344,1.629,0.139
		c0.933-0.452,1.752-1.142,2.61-1.746c8.068-5.681,16.825-9.995,26.183-13.078c18.843-6.209,38.172-7.394,57.79-5.479
		c2.261,0.221,4.516,0.526,6.781,0.665c0.469,0.029,1.28-0.415,1.397-0.803c0.248-0.824-0.426-1.222-1.207-1.332
		c-0.346-0.049-0.695-0.081-1.043-0.114C315.398,305.128,309.222,304.55,303.047,303.972z M271.382,263.641c0.107,0,0.213,0,0.32,0
		c0,2.97,0.065,5.942-0.017,8.91c-0.095,3.401-0.068,6.838-1.261,10.097c-1.224,3.345-3.883,4.375-6.843,2.529
		c-1.063-0.663-1.999-1.725-2.645-2.812c-0.746-1.255-1.294-2.698-1.597-4.129c-0.65-3.071-1.098-6.185-1.609-9.284
		c-0.753-4.565-1.452-9.139-2.258-13.694c-0.195-1.102-0.661-2.172-1.122-3.203c-0.136-0.303-0.814-0.674-1.016-0.57
		c-0.389,0.199-0.821,0.696-0.86,1.105c-0.054,0.572,0.236,1.177,0.377,1.769c0.405,1.698,0.923,3.378,1.191,5.097
		c0.753,4.831,1.392,9.681,2.098,14.52c0.468,3.209,1.126,6.368,2.648,9.281c1.001,1.917,2.35,3.523,4.412,4.29
		c4.747,1.766,7.754,0.18,9.172-3.657c0.599-1.621,1.066-3.369,1.158-5.083c0.221-4.093,0.206-8.199,0.245-12.301
		c0.059-6.196,0.083-12.392,0.119-18.588c0.002-0.346,0.087-0.753-0.062-1.024c-0.185-0.336-0.553-0.742-0.881-0.78
		c-0.323-0.037-0.925,0.285-1.002,0.562c-0.28,1-0.528,2.045-0.541,3.076C271.352,254.379,271.382,259.01,271.382,263.641z
		 M209.418,163.774c3.865-0.706,7.505-1.211,11.067-2.048c16.665-3.916,31.936-11.132,46.536-19.895
		c0.763-0.458,2.119-0.829,1.512-2.034c-0.746-1.479-1.801-0.321-2.635,0.126c-5.385,2.888-10.677,5.959-16.138,8.692
		c-8.923,4.464-18.179,8.13-27.919,10.407c-4.072,0.952-8.229,1.538-12.346,2.299c-0.778,0.144-1.76,0.282-1.472,1.354
		C208.151,163.149,208.967,163.439,209.418,163.774z M214.956,275.8c3.251,0.06,7.44-0.942,11.358-2.768
		c5.666-2.64,10.705-6.227,15.389-10.33c0.748-0.655,2.108-1.416,1.2-2.493c-1.117-1.325-2.005,0.219-2.753,0.87
		c-3.838,3.337-7.974,6.228-12.41,8.714c-8.607,4.823-17.284,4.846-26.067,0.518c-0.797-0.392-1.801-1.351-2.489-0.105
		c-0.679,1.231,0.668,1.562,1.408,2.065c0.429,0.292,0.927,0.485,1.4,0.71C206.093,274.928,210.462,275.65,214.956,275.8z
		 M295.855,260.08c3.9,0.106,7.441-1.022,10.632-3.179c2.02-1.366,4.076-2.742,5.847-4.401c3.692-3.458,7.202-7.109,10.795-10.674
		c0.583-0.579,1.244-1.204,0.406-1.952c-0.741-0.662-1.472-0.172-2.053,0.426c-0.972,1.002-1.92,2.029-2.883,3.04
		c-4.161,4.367-8.335,8.754-13.605,11.803c-6.399,3.702-12.901,3.78-19.34-0.038c-0.224-0.133-0.459-0.373-0.679-0.361
		c-0.396,0.021-0.927,0.081-1.136,0.339c-0.203,0.251-0.247,0.979-0.057,1.139c0.985,0.833,1.981,1.734,3.132,2.272
		C289.733,259.814,292.802,259.999,295.855,260.08z M220.225,152.663c1.68-0.398,3.14-0.669,4.554-1.093
		c9.15-2.74,17.587-7.108,26.019-11.479c0.741-0.384,1.809-0.77,1.278-1.883c-0.551-1.153-1.468-0.465-2.246-0.134
		c-0.16,0.068-0.307,0.166-0.462,0.244c-3.114,1.563-6.167,3.266-9.357,4.656c-5.025,2.19-10.123,4.218-15.233,6.206
		c-1.445,0.562-3.04,0.738-4.562,1.105c-0.728,0.175-1.448,0.531-1.177,1.383C219.178,152.105,219.856,152.371,220.225,152.663z
		 M335.238,305.806c-0.149-1.989-0.192-3.388-0.371-4.769c-0.375-2.899-2.007-4.971-4.514-6.346
		c-0.658-0.361-1.475-0.513-2.233-0.572c-0.296-0.023-0.812,0.43-0.897,0.754c-0.081,0.305,0.202,0.787,0.456,1.076
		c0.209,0.238,0.605,0.321,0.928,0.449c2.641,1.046,4.004,3.069,4.123,5.824c0.101,2.344,0.196,4.742-0.175,7.041
		c-0.734,4.551-2.735,8.245-7.755,9.378c-0.38,0.086-0.643,0.697-0.96,1.063c0.419,0.358,0.871,1.048,1.249,1.01
		c1.093-0.11,2.314-0.271,3.202-0.847c3.008-1.953,5.299-4.575,6.088-8.177C334.844,309.572,335.015,307.391,335.238,305.806z
		 M213.082,325.702c0.407,3.934,2.229,7.911,5.227,11.38c1.391,1.61,2.948,3.043,5.027,3.641c1.148,0.33,2.393,0.399,3.597,0.41
		c0.319,0.003,0.899-0.644,0.896-0.989c-0.003-0.366-0.504-0.805-0.888-1.065c-0.25-0.169-0.677-0.09-1.026-0.097
		c-1.757-0.037-3.218-0.803-4.473-1.94c-3.219-2.917-5.195-6.57-5.99-10.813c-0.488-2.603,0.265-4.851,2.539-6.43
		c0.357-0.248,0.813-0.428,1.043-0.764c0.212-0.309,0.356-0.871,0.21-1.161c-0.146-0.291-0.719-0.574-1.049-0.52
		c-0.577,0.095-1.169,0.369-1.653,0.711C214.144,319.759,213.07,322.138,213.082,325.702z"/>
	<path fill="#A9DBEA" d="M168.635,137.872c-0.678-1.466-1.119-2.487-1.615-3.48c-7.2-14.409-13.626-29.143-18.704-44.445
		c-3.89-11.724-7.021-23.632-8.452-35.928c-0.44-3.782-0.863-7.591-0.522-11.663c0.498,0.215,0.831,0.281,1.064,0.471
		c9.186,7.494,19.337,13.529,29.514,19.52c11.157,6.569,22.318,13.134,32.557,21.11c3.932,3.063,7.738,6.286,11.605,9.431
		c0.65,0.529,1.22,1.348,2.247,0.758c1.503-8.984,4.259-17.549,7.882-25.873c2.535-5.824,6.231-10.924,9.641-16.205
		c5.268-8.158,10.515-16.324,14.46-25.237c2.726-6.158,5.068-12.45,6.574-19.473c0.38,0.552,0.613,0.755,0.674,1.001
		c3.758,15.01,7.523,30.017,11.237,45.038c1.511,6.109,2.777,12.282,4.398,18.36c1.237,4.637,2.694,9.232,4.353,13.735
		c1.993,5.411,4.257,10.725,6.499,16.04c1.159,2.747,1.401,2.773,4.048,1.277c22.611-12.782,45.216-25.573,67.826-38.357
		c0.893-0.505,1.811-0.965,3.161-1.681c-0.492,3.324-0.926,6.15-1.328,8.981c-3.33,23.456-6.669,46.911-9.96,70.372
		c-0.461,3.286-0.719,6.604-0.981,9.914c-0.14,1.775,0.13,2.098,1.785,2.189c14.676,0.803,28.818,4.488,42.997,7.958
		c4.244,1.039,8.448,2.247,12.666,3.391c0.747,0.203,1.477,0.472,2.597,0.835c-1.018,0.762-1.76,1.335-2.52,1.883
		c-10.791,7.773-21.467,15.698-31.541,24.392c-3.107,2.681-6.013,5.597-8.969,8.45c-0.749,0.723-1.378,1.585-1.984,2.439
		c-1.203,1.695-1.114,2.084,0.675,2.992c1.247,0.633,2.589,1.093,3.792,1.794c12.386,7.224,24.753,14.482,37.123,21.735
		c0.147,0.086,0.259,0.231,0.635,0.576c-0.651,0.555-1.256,1.109-1.9,1.614c-10.539,8.247-21.083,16.488-31.627,24.73
		c-0.276,0.215-0.566,0.413-0.834,0.637c-1.581,1.318-1.699,1.484-0.759,3.294c2.256,4.343,4.372,8.784,6.976,12.914
		c3.727,5.912,7.838,11.582,11.785,17.355c0.291,0.426,0.586,0.849,1.067,1.547c-0.824,0.2-1.435,0.401-2.062,0.493
		c-9.175,1.343-18.337,2.784-27.136,5.825c-2.368,0.818-4.67,1.989-6.781,3.344c-2.375,1.525-2.455,2.237-1.538,4.813
		c2.416,6.785,5.873,13.069,9.363,19.336c0.453,0.814,0.861,1.652,1.467,2.819c-7.657,0.533-14.922,1.038-22.585,1.571
		c5.193-15.377,7.748-30.835,8.604-46.816c5.706-0.512,9.928-3.344,12.919-8.013c3.278-5.118,4.446-10.811,4.109-16.794
		c-0.366-6.493-6.24-15.82-18.991-17.838c-0.459-2.729-0.859-5.563-1.42-8.365c-4.778-23.875-10.702-47.411-20.95-69.637
		c-5.302-11.498-11.777-22.257-20.454-31.574c-13.017-13.978-28.997-21.895-48.069-23.547c-5.686-0.493-11.4-0.774-17.012,0.156
		c-4.278,0.709-8.519,1.97-12.607,3.451c-22.007,7.971-36.032,23.663-43.5,45.549c-3.322,9.737-5.074,19.791-5.896,30.028
		c-1.28,15.939-0.418,31.801,1.469,47.646c1.76,14.783,4.51,29.364,8.401,43.733c0.202,0.747,0.304,1.521,0.466,2.348
		c-0.404,0.289-0.743,0.553-1.103,0.785c-5.714,3.687-8.214,9.096-8.384,15.729c-0.089,3.467,1.151,6.543,3.153,9.276
		c3.967,5.414,9.088,9.154,15.823,10.374c0.902,0.163,1.589,0.372,2.003,1.364c3.267,7.806,6.596,15.586,10.004,23.604
		c-9.632,3.1-19.407,6.469-29.483,9.052c-0.938-1.442-0.737-2.874-0.63-4.22c0.469-5.926,1.048-11.843,1.537-17.768
		c0.252-3.049,0.431-6.105,0.579-9.162c0.055-1.131-0.015-2.276-0.13-3.405c-0.355-3.457-0.723-3.754-4.239-3.714
		c-14.223,0.162-28.27-1.342-42.306-4.388c0.345-1.19,1.376-1.37,2.15-1.75c7.247-3.56,14.047-7.845,20.499-12.679
		c4.561-3.418,8.888-7.123,12.198-11.824c1.097-1.558,1.902-3.327,2.782-5.03c0.803-1.554,0.633-3.127-0.46-4.431
		c-1.283-1.532-2.569-3.163-4.17-4.308c-4.903-3.506-9.79-7.086-14.986-10.118c-12.31-7.183-24.799-14.059-37.203-21.082
		c-1.809-1.024-3.547-2.173-5.902-3.624c1.328-0.338,2.02-0.544,2.724-0.69c12.637-2.628,24.563-6.996,34.987-14.791
		c2.921-2.184,5.524-4.823,8.115-7.411c1.789-1.787,1.705-2.067,0.175-3.962c-11.929-14.772-24.121-29.314-37.556-42.762
		c-4.466-4.471-9.286-8.455-14.882-11.518c-4.136-2.263-8.039-4.952-12.038-7.465c-0.33-0.207-0.598-0.512-1.331-1.151
		c14.164,0.504,27.748-0.026,41.306-1.052C141.289,141.647,154.794,140.73,168.635,137.872z"/>
	<path fill="#E2D3C3" d="M296.68,379.323c0.213,1.915,0.403,3.539,0.572,5.166c0.316,3.044,0.602,6.09,0.938,9.132
		c0.115,1.036-0.045,1.811-1.033,2.439c-6.332,4.025-12.977,7.212-20.543,8.128c-3.351,0.406-6.637,0.103-9.892-0.66
		c-6.938-1.626-13.084-4.853-18.55-9.385c-0.477-0.395-0.917-1.157-0.919-1.749c-0.012-4.094,0.098-8.188,0.168-12.276
		c5.625,0.988,10.979,2.33,16.405,2.767c5.465,0.44,11.011,0.148,16.505-0.134C285.819,382.469,291.196,381.34,296.68,379.323z"/>
	<path fill="#E2D3C3" d="M346.32,281.171c0.427-12.687-0.342-25.038-1.822-37.672c1.031,0.163,1.794,0.187,2.494,0.409
		c7.171,2.269,12.607,6.559,13.702,14.299c1.031,7.295-0.869,14.088-6.297,19.484C352.3,279.777,349.782,281.108,346.32,281.171z"/>
	<path fill="#E2D3C3" d="M194.644,314.864c-1.318-0.335-2.245-0.484-3.108-0.804c-5.26-1.946-9.429-5.279-12.321-10.09
		c-4.067-6.766-1.334-16.548,5.976-20.657c1.496,5.303,2.906,10.547,4.463,15.746C191.194,304.206,192.883,309.308,194.644,314.864z
		"/>
	<path fill="#A9DBEA" d="M219.705,361.411c-2.593,1.455-5.161,2.895-8.106,4.548c-1.591-7.299-2.794-14.407-4.166-21.8
		C211.604,350.023,215.57,355.598,219.705,361.411z"/>
	<path d="M248.885,211.457c-4.283-10.141-11.512-16.457-21.691-19.778c0.077-0.582,0.152-1.139,0.223-1.675
		c9.306-0.371,22.355,13.13,25.198,25.934c3.684,16.59-5.112,33.608-20.747,40.14c-15.983,6.677-34.108,0.995-43.526-13.577
		c-9.157-14.167-5.897-31.907,2.236-40.547c1.488,0.868,1.087,1.819,0.276,2.97c-2.868,4.07-4.672,8.6-5.358,13.525
		c-0.569,4.084-0.662,8.18,0.542,12.568C205.511,219.815,226.396,213.467,248.885,211.457z M249.765,213.685
		c-10.386,0.807-20.225,2.497-29.87,5.392c1.243,3.966,0.581,6.268-1.984,6.871c-0.876,0.206-1.952,0.119-2.794-0.205
		c-1.845-0.708-2.16-2.533-2.396-4.452c-9.238,3.278-17.935,6.99-26.224,12.189c3.969,11.143,11.281,18.729,22.49,21.814
		c12.981,3.572,24.544,0.383,33.667-9.622C250.945,236.579,253.005,225.792,249.765,213.685z"/>
	<path d="M324.067,194.458c-0.57-1.404-0.95-2.549-1.482-3.618c-3.6-7.241-9.071-12.557-16.49-15.814
		c-1.22-0.536-2.29-1.034-1.552-2.656c10.367,1.278,21.955,15.553,23.462,28.898c1.836,16.249-8.008,31.979-23.348,37.308
		c-15.602,5.42-32.869-0.533-41.596-14.285c-9.476-14.933-5.696-32.83,3.562-42.451c0.494,0.322,1.021,0.666,1.719,1.12
		c-4.433,5.266-7.294,11.06-8.191,17.738c-0.468,3.486-0.571,6.954,0.377,10.739C280.443,201.212,301.45,195.395,324.067,194.458z
		 M260.842,213.862c3.604,11.776,11,19.804,22.708,23.112c12.941,3.656,24.521,0.543,33.693-9.403
		c8.013-8.689,10.347-19.084,7.691-30.554c-5.454-0.792-25.151,1.942-28.724,3.912c0.923,3.188,0.37,5.268-1.815,5.987
		c-0.928,0.305-2.103,0.286-3.052,0.014c-2.041-0.585-2.16-2.708-2.87-4.363C278.842,205.384,269.742,209.086,260.842,213.862z"/>
	<path d="M190.124,193.163c-0.802-0.22-2.133-0.388-3.286-0.933c-4.831-2.288-5.423-8.435-1.102-11.572
		c1.106-0.803,2.431-1.46,3.754-1.783c34.998-8.557,69.146-19.984,103.529-30.617c1.001-0.309,2.01-0.633,3.039-0.799
		c3.503-0.564,5.777,1.354,5.387,4.844c-0.489,4.384-2.247,7.92-6.803,9.692c-27.06,10.524-54.469,19.972-82.666,26.987
		c-6.267,1.559-12.658,2.621-18.996,3.89C192.214,193.024,191.419,193.035,190.124,193.163z M190.892,190.906
		c1.445-0.218,3.179-0.44,4.899-0.745c13.793-2.446,27.269-6.147,40.647-10.243c19.397-5.939,38.547-12.58,57.43-20
		c3.522-1.384,4.823-4.114,5.349-7.432c0.35-2.206-0.709-3.17-2.879-2.785c-1.369,0.243-2.703,0.706-4.038,1.119
		c-33.812,10.454-67.399,21.666-101.806,30.112c-1.393,0.342-2.811,1.055-3.925,1.957c-1.897,1.536-1.975,4.292-0.41,6.106
		C187.322,190.34,188.864,190.86,190.892,190.906z"/>
	<path d="M303.047,303.972c6.176,0.578,12.352,1.156,18.527,1.736c0.348,0.033,0.697,0.065,1.043,0.114
		c0.781,0.11,1.456,0.509,1.207,1.332c-0.117,0.388-0.928,0.832-1.397,0.803c-2.265-0.139-4.52-0.445-6.781-0.665
		c-19.618-1.915-38.947-0.73-57.79,5.479c-9.358,3.084-18.115,7.398-26.183,13.078c-0.858,0.604-1.677,1.294-2.61,1.746
		c-0.422,0.204-1.079-0.078-1.629-0.139c0.131-0.538,0.082-1.306,0.424-1.574c1.719-1.345,3.499-2.624,5.334-3.807
		c13.441-8.672,28.193-13.809,43.95-16.216C285.72,304.548,294.347,304.038,303.047,303.972z"/>
	<path d="M271.382,263.641c0-4.631-0.031-9.262,0.024-13.892c0.012-1.031,0.261-2.077,0.541-3.076
		c0.078-0.277,0.679-0.599,1.002-0.562c0.328,0.037,0.696,0.444,0.881,0.78c0.149,0.271,0.064,0.678,0.062,1.024
		c-0.036,6.196-0.06,12.392-0.119,18.588c-0.039,4.101-0.024,8.208-0.245,12.301c-0.092,1.714-0.56,3.462-1.158,5.083
		c-1.418,3.837-4.425,5.423-9.172,3.657c-2.062-0.767-3.411-2.373-4.412-4.29c-1.521-2.912-2.179-6.071-2.648-9.281
		c-0.706-4.839-1.345-9.688-2.098-14.52c-0.268-1.719-0.786-3.399-1.191-5.097c-0.141-0.591-0.431-1.196-0.377-1.769
		c0.039-0.409,0.471-0.906,0.86-1.105c0.202-0.104,0.881,0.267,1.016,0.57c0.462,1.031,0.927,2.1,1.122,3.203
		c0.806,4.555,1.505,9.129,2.258,13.694c0.511,3.099,0.959,6.213,1.609,9.284c0.303,1.431,0.851,2.875,1.597,4.129
		c0.646,1.087,1.582,2.149,2.645,2.812c2.959,1.845,5.618,0.816,6.843-2.529c1.192-3.258,1.166-6.696,1.261-10.097
		c0.083-2.968,0.017-5.94,0.017-8.91C271.596,263.641,271.489,263.641,271.382,263.641z"/>
	<path d="M209.418,163.774c-0.451-0.335-1.267-0.625-1.395-1.1c-0.289-1.072,0.694-1.21,1.472-1.354
		c4.117-0.761,8.274-1.347,12.346-2.299c9.739-2.277,18.996-5.943,27.919-10.407c5.462-2.732,10.753-5.804,16.138-8.692
		c0.834-0.447,1.889-1.605,2.635-0.126c0.608,1.205-0.749,1.577-1.512,2.034c-14.6,8.763-29.872,15.978-46.536,19.895
		C216.923,162.563,213.283,163.068,209.418,163.774z"/>
	<path d="M214.956,275.8c-4.494-0.149-8.863-0.871-12.963-2.818c-0.473-0.225-0.971-0.418-1.4-0.71
		c-0.74-0.503-2.086-0.835-1.408-2.065c0.687-1.246,1.692-0.288,2.489,0.105c8.783,4.328,17.461,4.305,26.067-0.518
		c4.436-2.486,8.571-5.376,12.41-8.714c0.749-0.651,1.636-2.195,2.753-0.87c0.908,1.077-0.452,1.837-1.2,2.493
		c-4.685,4.103-9.724,7.69-15.389,10.33C222.396,274.858,218.207,275.86,214.956,275.8z"/>
	<path d="M295.855,260.08c-3.053-0.081-6.123-0.266-8.941-1.585c-1.151-0.538-2.147-1.44-3.132-2.272
		c-0.189-0.16-0.146-0.888,0.057-1.139c0.208-0.258,0.739-0.317,1.136-0.339c0.219-0.012,0.454,0.228,0.679,0.361
		c6.439,3.819,12.941,3.741,19.34,0.038c5.27-3.049,9.444-7.436,13.605-11.803c0.963-1.011,1.911-2.038,2.883-3.04
		c0.581-0.599,1.312-1.088,2.053-0.426c0.838,0.748,0.177,1.374-0.406,1.952c-3.592,3.564-7.103,7.216-10.795,10.674
		c-1.771,1.659-3.826,3.035-5.847,4.401C303.296,259.058,299.756,260.186,295.855,260.08z"/>
	<path d="M220.225,152.663c-0.369-0.292-1.048-0.558-1.187-0.995c-0.271-0.852,0.449-1.208,1.177-1.383
		c1.523-0.366,3.117-0.543,4.562-1.105c5.11-1.988,10.207-4.016,15.233-6.206c3.19-1.39,6.243-3.092,9.357-4.656
		c0.156-0.078,0.303-0.176,0.462-0.244c0.778-0.331,1.695-1.019,2.246,0.134c0.532,1.113-0.537,1.499-1.278,1.883
		c-8.432,4.371-16.869,8.739-26.019,11.479C223.365,151.994,221.905,152.265,220.225,152.663z"/>
	<path d="M335.238,305.806c-0.223,1.584-0.395,3.766-0.859,5.883c-0.789,3.602-3.081,6.224-6.088,8.177
		c-0.888,0.577-2.109,0.737-3.202,0.847c-0.379,0.038-0.831-0.652-1.249-1.01c0.317-0.367,0.579-0.977,0.96-1.063
		c5.021-1.133,7.021-4.827,7.755-9.378c0.371-2.299,0.276-4.697,0.175-7.041c-0.119-2.755-1.482-4.778-4.123-5.824
		c-0.323-0.128-0.718-0.211-0.928-0.449c-0.254-0.289-0.537-0.77-0.456-1.076c0.086-0.323,0.602-0.776,0.897-0.754
		c0.758,0.058,1.575,0.211,2.233,0.572c2.507,1.375,4.14,3.447,4.514,6.346C335.046,302.418,335.089,303.817,335.238,305.806z"/>
	<path d="M213.082,325.702c-0.012-3.564,1.062-5.943,3.46-7.638c0.484-0.342,1.076-0.616,1.653-0.711
		c0.33-0.054,0.903,0.229,1.049,0.52c0.146,0.29,0.002,0.853-0.21,1.161c-0.23,0.335-0.686,0.515-1.043,0.764
		c-2.274,1.58-3.027,3.827-2.539,6.43c0.796,4.243,2.772,7.896,5.99,10.813c1.255,1.137,2.716,1.904,4.473,1.94
		c0.348,0.007,0.776-0.072,1.026,0.097c0.383,0.26,0.885,0.698,0.888,1.065c0.003,0.345-0.577,0.992-0.896,0.989
		c-1.203-0.011-2.448-0.08-3.597-0.41c-2.08-0.597-3.636-2.031-5.027-3.641C215.311,333.613,213.489,329.636,213.082,325.702z"/>
	<path fill="#FFFFFF" d="M249.765,213.685c3.24,12.107,1.181,22.894-7.111,31.987c-9.123,10.006-20.686,13.195-33.667,9.622
		c-11.21-3.085-18.521-10.671-22.49-21.814c8.289-5.199,16.986-8.911,26.224-12.189c0.236,1.918,0.551,3.744,2.396,4.452
		c0.842,0.323,1.918,0.41,2.794,0.205c2.566-0.603,3.227-2.905,1.984-6.871C229.54,216.182,239.379,214.492,249.765,213.685z"/>
	<path fill="#FFFFFF" d="M260.842,213.862c8.9-4.776,18-8.479,27.631-11.296c0.71,1.655,0.829,3.778,2.87,4.363
		c0.948,0.272,2.124,0.291,3.052-0.014c2.186-0.719,2.738-2.799,1.815-5.987c3.573-1.97,23.27-4.704,28.724-3.912
		c2.657,11.47,0.322,21.865-7.691,30.554c-9.172,9.946-20.751,13.059-33.693,9.403C271.842,233.667,264.446,225.639,260.842,213.862
		z"/>
	<path fill="#A9DBEA" d="M190.892,190.906c-2.028-0.046-3.57-0.566-4.731-1.912c-1.566-1.815-1.487-4.57,0.41-6.106
		c1.114-0.902,2.532-1.615,3.925-1.957c34.407-8.447,67.994-19.658,101.806-30.112c1.335-0.413,2.669-0.876,4.038-1.119
		c2.17-0.385,3.23,0.579,2.879,2.785c-0.527,3.318-1.827,6.048-5.349,7.432c-18.883,7.42-38.033,14.061-57.43,20
		c-13.378,4.096-26.855,7.797-40.647,10.243C194.071,190.466,192.337,190.688,190.892,190.906z"/>
	<g>
		<rect x="184.759" y="490.916" width="176.386" height="1.575"/>
	</g>
</g>
</svg>
